<svg width="346" height="61" viewBox="0 0 346 61" fill="none" xmlns="http://www.w3.org/2000/svg">
<path d="M29.51 55.2865L29.5241 55.2865C29.5194 55.2865 29.5147 55.2865 29.51 55.2865Z" fill="white"/>
<path d="M194.834 10.4091V50.1749H185.378V18.3023H173.5V28.2735C173.5 43.5322 170.692 49.5948 161.264 50.2843L158.531 41.5684H159.078C163.157 41.5684 164.691 37.831 164.691 28.2165V10.4091H194.834ZM146.332 17.2277L156.661 50.1749H147.441L144.784 41.7491H128.888L126.231 50.1749H117.544L127.822 17.242C129.365 12.3016 131.693 10.4138 137.079 10.4138C142.466 10.4091 144.788 12.2921 146.332 17.2277ZM142.366 33.97L138.052 20.3565C137.877 19.8049 137.362 19.4293 136.786 19.4293C136.206 19.4293 135.691 19.8097 135.517 20.366L131.315 33.97H142.366ZM212.023 18.3023V50.1749H221.478V18.3023H234.239V10.4091H199.257V18.3023H212.023ZM310.108 10.4091V18.3023H322.868V50.1749H332.324V18.3023H345.084V10.4091H310.108ZM286.593 33.6752H303.55V26.1385H286.593V18.2453H306.208V10.4091H277.137V38.5775C277.137 45.8574 281.433 50.1749 288.684 50.1749H306.506V42.3387H288.901C286.754 42.3387 286.593 42.177 286.593 40.0183V33.6752ZM115.156 37.7882C115.156 45.5008 110.506 50.1702 102.829 50.1654L82.6903 50.1559V10.3901H112.413V18.2833H92.1461V25.4063H102.839C110.51 25.411 115.156 30.0756 115.156 37.7882ZM105.733 40.256V35.3394C105.733 33.1806 105.572 33.019 103.424 33.019H92.1414V42.5765H103.424C105.572 42.5765 105.733 42.4148 105.733 40.256ZM271.142 37.9023C271.142 45.6149 266.492 50.2843 258.816 50.2795L238.676 50.27V10.5042H268.399V18.3974H248.132V25.5204H258.825C266.496 25.5204 271.142 30.1898 271.142 37.9023ZM261.719 40.3654V35.4488C261.719 33.29 261.558 33.1283 259.41 33.1283H248.128V42.6859H259.41C261.558 42.6859 261.719 42.5242 261.719 40.3654Z" fill="white"/>
<path fill-rule="evenodd" clip-rule="evenodd" d="M29.5242 60.051C23.3351 60.051 12.9823 60.051 6.47228 53.5652C-6.11898e-07 47.1174 0 36.5947 0 30.3086C0 24.0226 3.67139e-06 13.4998 6.477 7.05206C12.987 0.566276 23.3399 0.566284 29.5289 0.566284C35.7698 0.566284 46.2171 0.566281 52.6185 7.08535C59.0578 13.6425 59.0578 24.0749 59.0578 30.3039L59.0578 30.3268C59.053 36.5632 59.0452 46.9828 52.6185 53.5224C46.2123 60.051 35.7651 60.051 29.5242 60.051ZM54.3275 30.3086C54.3275 23.8704 54.1528 15.4256 49.2573 10.4376C44.3807 5.46866 35.8784 5.33077 29.5289 5.33077C23.1369 5.33077 14.7526 5.5067 9.80047 10.4376C7.23705 12.991 5.97659 16.5287 5.34871 20.2329C14.1861 20.2471 25.7286 20.5895 32.418 27.4034C39.1358 34.241 39.5229 45.7195 39.5371 54.6684C43.2146 54.0359 46.7316 52.7616 49.262 50.1844C54.1528 45.1917 54.3275 36.7469 54.3275 30.3086ZM35.1656 19.1487C35.1656 22.6722 37.1011 24.6217 40.5993 24.6217C44.0974 24.6217 46.0377 22.6722 46.0329 19.1487C46.0329 15.6253 44.0974 13.6757 40.5993 13.6757C37.1011 13.6757 35.1656 15.6253 35.1656 19.1487ZM4.72556 30.3229H20.7717C29.0238 30.3229 29.51 30.8127 29.51 39.1196V55.2865C23.1227 55.2865 14.7432 55.1106 9.79575 50.1797C4.86719 45.2678 4.72556 36.7136 4.72556 30.3229ZM18.4491 46.9415C13.4969 46.9415 13.0154 46.4518 13.0154 41.4686C13.0154 36.4806 13.5016 35.9956 18.4491 35.9956C23.4012 35.9956 23.8827 36.4853 23.8827 41.4686C23.8875 46.4565 23.4012 46.9415 18.4491 46.9415Z" fill="white"/>
</svg>
