<svg width="21" height="21" viewBox="0 0 21 21" fill="none" xmlns="http://www.w3.org/2000/svg">
<path d="M13.4593 8.37829H5.62534L7.87785 6.52372C8.16686 6.28563 8.20845 5.85677 7.97036 5.56847C7.84056 5.41142 7.64981 5.32178 7.44614 5.32178C7.28909 5.32178 7.13634 5.37628 7.01586 5.47596L2.71306 9.01799L2.65497 9.06533L7.0259 12.5263C7.14495 12.6217 7.29483 12.6733 7.44614 12.6733C7.65411 12.6733 7.84845 12.5794 7.97897 12.4159C8.2106 12.1233 8.16041 11.6958 7.86782 11.4635L5.68343 9.73227H13.4593C14.9445 9.73227 16.1522 10.7478 16.1522 11.9956C16.1522 13.242 14.9445 14.2575 13.4593 14.2575H8.22352C7.84989 14.2575 7.54582 14.5616 7.54582 14.9352C7.54582 15.3082 7.84989 15.613 8.22352 15.613H13.4593C15.6917 15.613 17.5083 13.9893 17.5083 11.9949C17.5083 9.99977 15.6917 8.37829 13.4593 8.37829Z" fill="white"/>
</svg>
