<svg width="22" height="23" viewBox="0 0 22 23" fill="none" xmlns="http://www.w3.org/2000/svg">
<path d="M11.2484 8.13919C11.4813 8.01441 11.6639 7.81954 11.7666 7.58718C11.8704 7.35421 11.8895 7.09604 11.8213 6.85138C11.7537 6.60673 11.6018 6.39036 11.3897 6.23668C11.1777 6.083 10.9183 5.99878 10.6515 6.00001C10.3841 6.00001 10.1253 6.08422 9.91386 6.2379C9.70179 6.39281 9.54994 6.60919 9.48294 6.85384C9.41532 7.09849 9.43439 7.35667 9.5395 7.58964C9.64277 7.82261 9.82595 8.01563 10.0583 8.14041L10.0522 8.15026C9.65567 8.93278 9.10613 10.0534 8.25599 10.4732C7.5583 10.8193 6.55696 10.646 5.81194 10.5163C5.80026 10.3564 5.74186 10.2015 5.64228 10.0718C5.5427 9.94211 5.40622 9.8413 5.24824 9.78106C5.09211 9.71959 4.91999 9.703 4.75279 9.72944C4.58559 9.7571 4.4307 9.82779 4.30407 9.93598C4.17744 10.0417 4.08524 10.1794 4.03667 10.3343C3.98873 10.488 3.98811 10.6515 4.03298 10.8064C4.07847 10.9613 4.16945 11.1008 4.29362 11.2084C4.41963 11.3166 4.57453 11.3898 4.7405 11.4199L6.52314 15.7744C6.6553 16.0971 6.88766 16.375 7.19009 16.5705C7.49191 16.766 7.84907 16.8705 8.21481 16.8705H13.0894C13.4558 16.8705 13.8129 16.766 14.1147 16.5705C14.4166 16.375 14.6489 16.0971 14.7811 15.7744L16.5631 11.4199C16.7291 11.3898 16.8828 11.3178 17.0082 11.2109C17.1317 11.1039 17.2233 10.9662 17.27 10.8125C17.3155 10.6601 17.3167 10.4966 17.2712 10.3429C17.2258 10.1892 17.1354 10.0522 17.0118 9.94335C16.8877 9.83516 16.7346 9.76323 16.5686 9.73311C16.4027 9.70299 16.2312 9.71652 16.0744 9.77369C15.917 9.83024 15.7787 9.92736 15.6773 10.0534C15.5747 10.1806 15.5113 10.3318 15.4941 10.4904C14.7337 10.5826 13.7521 10.7019 13.0488 10.3546C12.2159 9.94397 11.6578 8.9002 11.2484 8.13919ZM10.6675 9.49339C11.1316 10.2064 11.6891 10.9736 12.4895 11.3701C13.291 11.7672 14.2789 11.7469 15.1628 11.675L13.6537 15.3607C13.6101 15.4689 13.5326 15.5611 13.4318 15.6275C13.331 15.6915 13.2117 15.7271 13.0894 15.7271H8.21481C8.09372 15.7271 7.97447 15.6908 7.87366 15.6275C7.77285 15.5618 7.69538 15.4689 7.65174 15.3607L6.16293 11.7266C7.03335 11.8311 8.0181 11.8827 8.81537 11.4875C9.64891 11.0762 10.2064 10.2452 10.6675 9.49339Z" fill="white"/>
</svg>
