<svg width="23" height="23" viewBox="0 0 23 23" fill="none" xmlns="http://www.w3.org/2000/svg">
<path d="M15.3167 7C13.8635 7 12.2782 8.6677 11.4791 9.63771C10.68 8.6677 9.09528 7 7.64273 7C5.63388 7 4 8.63512 4 10.644C4 12.6528 5.63388 14.2867 7.64273 14.2867C9.09528 14.2867 10.68 12.6202 11.4791 11.6502C12.2776 12.6202 13.8629 14.2867 15.3167 14.2867C17.3262 14.2867 18.9594 12.6528 18.9594 10.644C18.9594 8.63512 17.3262 7 15.3167 7ZM7.64273 13.0524C6.31374 13.0524 5.2337 11.9717 5.2337 10.644C5.2337 9.31498 6.31436 8.23434 7.64273 8.23434C8.52176 8.23434 9.88087 9.59098 10.7083 10.644C9.88087 11.6957 8.52176 13.0524 7.64273 13.0524ZM15.3167 13.0524C14.437 13.0524 13.0779 11.697 12.2518 10.644C13.014 9.68258 14.4149 8.23434 15.3167 8.23434C16.6451 8.23434 17.7257 9.31498 17.7257 10.644C17.7257 11.9717 16.6451 13.0524 15.3167 13.0524Z" fill="white"/>
</svg>
