<svg width="486" height="346" viewBox="0 0 486 346" fill="none" xmlns="http://www.w3.org/2000/svg">
<rect width="485.227" height="345.219" transform="translate(0 0.16748)" fill="url(#paint0_radial_184_380)"/>
<path d="M15.0797 246.167V226.003L53.2656 191.094C65.3641 180.004 75.1101 170.468 82.5036 162.486C89.8971 154.421 95.2742 147.153 98.6349 140.684C101.996 134.214 103.676 127.661 103.676 121.024C103.676 111.362 100.357 103.842 93.7199 98.4651C87.1665 93.0039 78.0087 90.2734 66.2462 90.2734C58.4326 90.2734 50.9551 91.6176 43.8136 94.3062C36.6721 96.9947 30.5809 100.902 25.5399 106.027L15.2057 85.4844C22.3472 79.0991 30.5809 74.2681 39.9068 70.9914C49.2327 67.6307 59.0208 65.9504 69.2709 65.9504C81.4534 65.9504 92.0816 68.1348 101.155 72.5037C110.313 76.7886 117.413 82.8798 122.454 90.7775C127.579 98.5911 130.141 107.749 130.141 118.251C130.141 125.561 128.671 132.87 125.73 140.18C122.874 147.405 117.707 155.555 110.229 164.629C102.836 173.703 92.3336 184.583 78.7228 197.269L51.6272 222.223H134.552V246.167H15.0797Z" fill="white" fill-opacity="0.25"/>
<defs>
<radialGradient id="paint0_radial_184_380" cx="0" cy="0" r="1" gradientUnits="userSpaceOnUse" gradientTransform="translate(204.995 179.589) rotate(77.2038) scale(169.849 238.84)">
<stop stop-color="#211261"/>
<stop offset="1" stop-color="#211261" stop-opacity="0"/>
</radialGradient>
</defs>
</svg>
