<svg width="122" height="123" viewBox="0 0 122 123" fill="none" xmlns="http://www.w3.org/2000/svg">
<path fill-rule="evenodd" clip-rule="evenodd" d="M13.3703 109.589C26.8185 123 48.2051 123 60.9902 123C73.8827 123 95.4643 123 108.698 109.5C121.974 95.9783 121.99 74.433 122 61.5376L122 61.4902C122 48.6101 122 27.0384 108.698 13.4799C95.474 -8.40874e-06 73.8924 0 61 0C48.2149 0 26.8283 -1.59766e-05 13.38 13.411C8.4006e-06 26.7434 0 48.5019 0 61.5C0 74.4981 -8.4006e-07 96.2566 13.3703 109.589ZM63.2827 77.2528C63.5071 77.4075 63.7325 77.563 63.9587 77.7194C68.9745 81.186 74.374 85.0215 76.7032 87.0269C77.0934 87.406 77.5558 87.7026 78.063 87.899C78.5701 88.0954 79.1115 88.1875 79.655 88.1699C81.8666 88.0866 82.4838 85.655 82.4838 85.655C82.4838 85.655 92.8007 44.1004 93.1454 38.5326C93.1587 38.3215 93.1737 38.1401 93.1873 37.9752C93.2088 37.7143 93.2269 37.4947 93.2296 37.2649C93.2475 36.8314 93.2049 36.3975 93.1031 35.9758C93.0512 35.737 92.937 35.5163 92.772 35.3363C92.607 35.1562 92.3971 35.0233 92.1639 34.951C91.2213 34.5925 89.6231 35.1315 89.6231 35.1315C89.6231 35.1315 33.0186 55.4964 29.7858 57.752C29.0883 58.2362 28.8551 58.518 28.7396 58.8491C28.1781 60.4549 29.9218 61.163 29.9218 61.163L44.5122 65.9215C44.5558 65.9291 44.5996 65.9349 44.6435 65.9388L51.4771 84.8715C51.4771 84.8715 52.118 86.2002 52.8935 86.5986C53.0302 86.6689 53.1712 86.7102 53.3135 86.7102C53.88 86.7102 59.1349 81.4761 63.2827 77.2528Z" fill="#003594"/>
<path fill-rule="evenodd" clip-rule="evenodd" d="M13.3703 109.589C26.8185 123 48.2051 123 60.9902 123C73.8827 123 95.4643 123 108.698 109.5C121.974 95.9783 121.99 74.433 122 61.5376L122 61.4902C122 48.6101 122 27.0384 108.698 13.4799C95.474 -8.40874e-06 73.8924 0 61 0C48.2149 0 26.8283 -1.59766e-05 13.38 13.411C8.4006e-06 26.7434 0 48.5019 0 61.5C0 74.4981 -8.4006e-07 96.2566 13.3703 109.589ZM63.2827 77.2528C63.5071 77.4075 63.7325 77.563 63.9587 77.7194C68.9745 81.186 74.374 85.0215 76.7032 87.0269C77.0934 87.406 77.5558 87.7026 78.063 87.899C78.5701 88.0954 79.1115 88.1875 79.655 88.1699C81.8666 88.0866 82.4838 85.655 82.4838 85.655C82.4838 85.655 92.8007 44.1004 93.1454 38.5326C93.1587 38.3215 93.1737 38.1401 93.1873 37.9752C93.2088 37.7143 93.2269 37.4947 93.2296 37.2649C93.2475 36.8314 93.2049 36.3975 93.1031 35.9758C93.0512 35.737 92.937 35.5163 92.772 35.3363C92.607 35.1562 92.3971 35.0233 92.1639 34.951C91.2213 34.5925 89.6231 35.1315 89.6231 35.1315C89.6231 35.1315 33.0186 55.4964 29.7858 57.752C29.0883 58.2362 28.8551 58.518 28.7396 58.8491C28.1781 60.4549 29.9218 61.163 29.9218 61.163L44.5122 65.9215C44.5558 65.9291 44.5996 65.9349 44.6435 65.9388L51.4771 84.8715C51.4771 84.8715 52.118 86.2002 52.8935 86.5986C53.0302 86.6689 53.1712 86.7102 53.3135 86.7102C53.88 86.7102 59.1349 81.4761 63.2827 77.2528Z" fill="url(#paint0_linear_255_785)"/>
<path fill-rule="evenodd" clip-rule="evenodd" d="M63.2827 77.2528C59.1349 81.4761 53.88 86.7102 53.3135 86.7102C53.1712 86.7102 53.0302 86.6689 52.8935 86.5986C52.2439 86.1721 52.4272 84.745 52.4272 84.745L53.7888 70.2602L53.8165 70.2766C53.8791 70.1285 53.9846 70.0082 53.9846 70.0082C53.9846 70.0082 80.1034 46.7694 80.7984 44.3298C80.8522 44.1408 80.6489 44.0476 80.3759 44.1304C78.6439 44.7682 48.6633 63.7188 45.2654 65.8665L45.2637 65.8676L45.2629 65.8681L45.2607 65.8695L45.2598 65.8701L45.2495 65.8766C45.053 65.9361 44.8472 65.9571 44.6435 65.9388L51.4771 84.8715C51.4771 84.8715 52.118 86.2002 52.8935 86.5986C53.3894 86.9243 54.3709 86.6666 56.2902 84.745C59.4127 81.6188 62.441 78.9966 63.9587 77.7194C63.7325 77.563 63.5071 77.4075 63.2827 77.2528Z" fill="#003594"/>
<path fill-rule="evenodd" clip-rule="evenodd" d="M63.2827 77.2528C59.1349 81.4761 53.88 86.7102 53.3135 86.7102C53.1712 86.7102 53.0302 86.6689 52.8935 86.5986C52.2439 86.1721 52.4272 84.745 52.4272 84.745L53.7888 70.2602L53.8165 70.2766C53.8791 70.1285 53.9846 70.0082 53.9846 70.0082C53.9846 70.0082 80.1034 46.7694 80.7984 44.3298C80.8522 44.1408 80.6489 44.0476 80.3759 44.1304C78.6439 44.7682 48.6633 63.7188 45.2654 65.8665L45.2637 65.8676L45.2629 65.8681L45.2607 65.8695L45.2598 65.8701L45.2495 65.8766C45.053 65.9361 44.8472 65.9571 44.6435 65.9388L51.4771 84.8715C51.4771 84.8715 52.118 86.2002 52.8935 86.5986C53.3894 86.9243 54.3709 86.6666 56.2902 84.745C59.4127 81.6188 62.441 78.9966 63.9587 77.7194C63.7325 77.563 63.5071 77.4075 63.2827 77.2528Z" fill="url(#paint1_linear_255_785)" fill-opacity="0.5"/>
<path d="M53.7888 70.2602L52.4272 84.745C52.4272 84.745 52.2439 86.1721 52.8935 86.5986C53.0302 86.6689 53.1712 86.7102 53.3135 86.7102C53.88 86.7102 59.1349 81.4761 63.2827 77.2528C59.2129 74.4473 55.5043 71.9551 54.0488 70.9807C53.9741 70.9297 53.9111 70.8632 53.8642 70.7858C53.8172 70.7084 53.7875 70.6218 53.7768 70.5319C53.7603 70.4486 53.7819 70.3584 53.8165 70.2766L53.7888 70.2602Z" fill="#003594"/>
<path d="M53.7888 70.2602L52.4272 84.745C52.4272 84.745 52.2439 86.1721 52.8935 86.5986C53.0302 86.6689 53.1712 86.7102 53.3135 86.7102C53.88 86.7102 59.1349 81.4761 63.2827 77.2528C59.2129 74.4473 55.5043 71.9551 54.0488 70.9807C53.9741 70.9297 53.9111 70.8632 53.8642 70.7858C53.8172 70.7084 53.7875 70.6218 53.7768 70.5319C53.7603 70.4486 53.7819 70.3584 53.8165 70.2766L53.7888 70.2602Z" fill="url(#paint2_linear_255_785)" fill-opacity="0.5"/>
<defs>
<linearGradient id="paint0_linear_255_785" x1="-32.8123" y1="12.5645" x2="119.142" y2="93.9494" gradientUnits="userSpaceOnUse">
<stop stop-color="#FFE585"/>
<stop offset="0.385192" stop-color="#D9A317"/>
<stop offset="0.677003" stop-color="#FFE585"/>
<stop offset="1" stop-color="#FBBC21"/>
</linearGradient>
<linearGradient id="paint1_linear_255_785" x1="-32.8123" y1="12.5645" x2="119.142" y2="93.9494" gradientUnits="userSpaceOnUse">
<stop stop-color="#FFE585"/>
<stop offset="0.385192" stop-color="#D9A317"/>
<stop offset="0.677003" stop-color="#FFE585"/>
<stop offset="1" stop-color="#FBBC21"/>
</linearGradient>
<linearGradient id="paint2_linear_255_785" x1="-32.8123" y1="12.5645" x2="119.142" y2="93.9494" gradientUnits="userSpaceOnUse">
<stop stop-color="#FFE585"/>
<stop offset="0.385192" stop-color="#D9A317"/>
<stop offset="0.677003" stop-color="#FFE585"/>
<stop offset="1" stop-color="#FBBC21"/>
</linearGradient>
</defs>
</svg>
