<svg width="122" height="123" viewBox="0 0 122 123" fill="none" xmlns="http://www.w3.org/2000/svg">
<path fill-rule="evenodd" clip-rule="evenodd" d="M13.3703 109.589C26.8185 123 48.2051 123 60.9902 123C73.8827 123 95.4643 123 108.698 109.5C121.974 95.9783 121.99 74.433 122 61.5376L122 61.4902C122 48.6101 122 27.0384 108.698 13.4799C95.474 -8.40874e-06 73.8924 0 61 0C48.2149 0 26.8283 -1.59766e-05 13.38 13.411C8.4006e-06 26.7434 0 48.5019 0 61.5C0 74.4981 -8.4006e-07 96.2566 13.3703 109.589ZM65.6008 89.7118H59.9935C59.9935 89.7118 47.6218 90.4539 36.7248 79.1458C24.8416 66.8136 14.3479 42.3422 14.3479 42.3422C14.3479 42.3422 13.7427 40.7384 14.4004 39.962C15.1398 39.0898 17.1516 39.0338 17.1516 39.0338L30.5562 38.9466C30.5562 38.9466 31.8191 39.1563 32.723 39.8181C33.4682 40.3644 33.8854 41.3847 33.8854 41.3847C33.8854 41.3847 36.0522 46.8462 38.9209 51.7864C44.5209 61.4312 47.1293 63.5404 49.0304 62.5072C51.801 61.0011 50.9702 48.8735 50.9702 48.8735C50.9702 48.8735 51.0207 44.4719 49.5748 42.5111C48.4556 40.9932 46.3447 40.5491 45.4121 40.4253C44.6576 40.3248 45.8958 38.5798 47.5006 37.7964C49.9127 36.6187 54.1719 36.5522 59.2053 36.6032C63.1268 36.643 64.2563 36.887 65.7894 37.2558C69.3472 38.1119 69.2363 40.8553 68.9969 46.7747C68.9254 48.5434 68.8424 50.5957 68.8424 52.9659C68.8424 53.4996 68.8268 54.0686 68.8107 54.6539C68.7274 57.6851 68.6321 61.1543 70.6342 62.444C71.6609 63.1051 74.1729 62.5424 80.454 51.9119C83.4304 46.8732 85.6639 40.9495 85.6639 40.9495C85.6639 40.9495 86.1505 39.8932 86.9086 39.4411C87.6836 38.9788 88.7301 39.1207 88.7301 39.1207L102.836 39.0338C102.836 39.0338 107.075 38.53 107.761 40.4371C108.48 42.4387 106.177 47.1122 100.414 54.7679C94.9424 62.0369 92.2825 64.7095 92.5311 67.076C92.7124 68.8021 94.441 70.3653 97.7545 73.4304C104.698 79.8545 106.549 83.2279 106.989 84.0288C107.025 84.0936 107.051 84.1416 107.07 84.1729C110.177 89.3088 103.624 89.7118 103.624 89.7118L91.0957 89.8863C91.0957 89.8863 88.4034 90.4171 84.8605 87.992C83.0081 86.7246 81.1972 84.6551 79.4716 82.6832C76.8329 79.6677 74.3939 76.8805 72.312 77.5386C68.8206 78.643 68.9303 86.1422 68.9303 86.1422C68.9303 86.1422 68.9558 87.7438 68.16 88.5972C67.2941 89.5257 65.6008 89.7118 65.6008 89.7118Z" fill="#003594"/>
<path fill-rule="evenodd" clip-rule="evenodd" d="M13.3703 109.589C26.8185 123 48.2051 123 60.9902 123C73.8827 123 95.4643 123 108.698 109.5C121.974 95.9783 121.99 74.433 122 61.5376L122 61.4902C122 48.6101 122 27.0384 108.698 13.4799C95.474 -8.40874e-06 73.8924 0 61 0C48.2149 0 26.8283 -1.59766e-05 13.38 13.411C8.4006e-06 26.7434 0 48.5019 0 61.5C0 74.4981 -8.4006e-07 96.2566 13.3703 109.589ZM65.6008 89.7118H59.9935C59.9935 89.7118 47.6218 90.4539 36.7248 79.1458C24.8416 66.8136 14.3479 42.3422 14.3479 42.3422C14.3479 42.3422 13.7427 40.7384 14.4004 39.962C15.1398 39.0898 17.1516 39.0338 17.1516 39.0338L30.5562 38.9466C30.5562 38.9466 31.8191 39.1563 32.723 39.8181C33.4682 40.3644 33.8854 41.3847 33.8854 41.3847C33.8854 41.3847 36.0522 46.8462 38.9209 51.7864C44.5209 61.4312 47.1293 63.5404 49.0304 62.5072C51.801 61.0011 50.9702 48.8735 50.9702 48.8735C50.9702 48.8735 51.0207 44.4719 49.5748 42.5111C48.4556 40.9932 46.3447 40.5491 45.4121 40.4253C44.6576 40.3248 45.8958 38.5798 47.5006 37.7964C49.9127 36.6187 54.1719 36.5522 59.2053 36.6032C63.1268 36.643 64.2563 36.887 65.7894 37.2558C69.3472 38.1119 69.2363 40.8553 68.9969 46.7747C68.9254 48.5434 68.8424 50.5957 68.8424 52.9659C68.8424 53.4996 68.8268 54.0686 68.8107 54.6539C68.7274 57.6851 68.6321 61.1543 70.6342 62.444C71.6609 63.1051 74.1729 62.5424 80.454 51.9119C83.4304 46.8732 85.6639 40.9495 85.6639 40.9495C85.6639 40.9495 86.1505 39.8932 86.9086 39.4411C87.6836 38.9788 88.7301 39.1207 88.7301 39.1207L102.836 39.0338C102.836 39.0338 107.075 38.53 107.761 40.4371C108.48 42.4387 106.177 47.1122 100.414 54.7679C94.9424 62.0369 92.2825 64.7095 92.5311 67.076C92.7124 68.8021 94.441 70.3653 97.7545 73.4304C104.698 79.8545 106.549 83.2279 106.989 84.0288C107.025 84.0936 107.051 84.1416 107.07 84.1729C110.177 89.3088 103.624 89.7118 103.624 89.7118L91.0957 89.8863C91.0957 89.8863 88.4034 90.4171 84.8605 87.992C83.0081 86.7246 81.1972 84.6551 79.4716 82.6832C76.8329 79.6677 74.3939 76.8805 72.312 77.5386C68.8206 78.643 68.9303 86.1422 68.9303 86.1422C68.9303 86.1422 68.9558 87.7438 68.16 88.5972C67.2941 89.5257 65.6008 89.7118 65.6008 89.7118Z" fill="url(#paint0_linear_255_783)"/>
<defs>
<linearGradient id="paint0_linear_255_783" x1="-32.8123" y1="12.5645" x2="119.142" y2="93.9494" gradientUnits="userSpaceOnUse">
<stop stop-color="#FFE585"/>
<stop offset="0.385192" stop-color="#D9A317"/>
<stop offset="0.677003" stop-color="#FFE585"/>
<stop offset="1" stop-color="#FBBC21"/>
</linearGradient>
</defs>
</svg>
